# xmcd
#
# Track frame offsets: 
#        150
#        20369
#        40610
#        55565
#        82517
#        107111
#        127706
#        143157
#        177742
#        196115
#        218785
#        240045
#        263477
#
# Disc length: 3807 seconds
#
# Revision: 0
# Processed by: cddbd v1.5.2PL0 Copyright (c) Steve Scherf et al.
# Submitted via: ExactAudioCopy v0.99pb3
#
DISCID=930edd0d
DTITLE=Lucerne Blues Festival - Part 2
DYEAR=2007
DGENRE=Blues
TTITLE0=Koko Taylor and Her Blues Machine - Piece of man
TTITLE1=Willie King and The Liberators - That's what the blues is all 
TTITLE1=about
TTITLE2=Bob Corritore - Big Pete Pearson and The Rhythm Room All-Stars -
TTITLE2=Naptown Blues
TTITLE3=Coco Montoya - It's my own tears
TTITLE4=Big Pete Pearson and The Rhythm Room All-Stars - Tin Pan Alley
TTITLE5=Janiva Magness - You were never mine
TTITLE6=Paul Oscher - So lonesome
TTITLE7=Mike Morgan and The Crawl feat Lee McBee - Twelve year old boy
TTITLE8=Jumpin' Johnny Sansone - Upside of low down
TTITLE9=Willie Walker and The Butanes - Cry cry cry
TTITLE10=Kenny Neal and Billy Branch - BillyBranch&TheSons of Blues - Bi
TTITLE10=lly and Kenny's stomp
TTITLE11=The Chargers - She wanna mambo
TTITLE12=Johnny 'Clyde' Copeland - I got a love
EXTD=
EXTT0=
EXTT1=
EXTT2=
EXTT3=
EXTT4=
EXTT5=
EXTT6=
EXTT7=
EXTT8=
EXTT9=
EXTT10=
EXTT11=
EXTT12=
PLAYORDER=
